<?xml version="1.0" encoding="UTF-8"?>
<svg id="Layer_1" xmlns="http://www.w3.org/2000/svg" version="1.1" xmlns:xlink="http://www.w3.org/1999/xlink" viewBox="0 0 988.72 428.34">
  <!-- Generator: Adobe Illustrator 29.5.0, SVG Export Plug-In . SVG Version: 2.1.0 Build 137)  -->
  <defs>
    <style>
      .st0 {
        font-family: Gilroy-Regular, Gilroy;
        font-size: 92.15px;
        letter-spacing: -.05em;
      }

      .st0, .st1 {
        fill: #003049;
      }

      .st2 {
        fill: url(#linear-gradient1);
      }

      .st3 {
        fill: url(#linear-gradient);
      }

      .st1 {
        font-family: Gilroy-Bold, Gilroy;
        font-size: 163.83px;
        font-weight: 700;
        letter-spacing: -.05em;
      }
    </style>
    <linearGradient id="linear-gradient" x1="69.89" y1="172.06" x2="258.6" y2="172.06" gradientUnits="userSpaceOnUse">
      <stop offset="0" stop-color="#827fbd"/>
      <stop offset=".51" stop-color="#89a7d7"/>
      <stop offset="1" stop-color="#9dd8d9"/>
    </linearGradient>
    <linearGradient id="linear-gradient1" x1="360.91" y1="259.1" x2="128.39" y2="253.81" gradientUnits="userSpaceOnUse">
      <stop offset="0" stop-color="#827fbd"/>
      <stop offset=".12" stop-color="#8998c5"/>
      <stop offset=".37" stop-color="#97c6d3"/>
      <stop offset=".49" stop-color="#9dd8d9"/>
      <stop offset=".58" stop-color="#9acfd6"/>
      <stop offset=".73" stop-color="#93b7ce"/>
      <stop offset=".92" stop-color="#8790c2"/>
      <stop offset="1" stop-color="#827fbd"/>
    </linearGradient>
  </defs>
  <path class="st3" d="M198.42,260.12c.34-.14,3.32-1.42,4.02-1.74,22.89-10.47,16.41-26.46,16.18-27.06-2.71-7.11-8.24-8.9-12.29-9.83-34.5-7.97-31.88-34.02-31.88-34.02,4.9-36.04,59.53-34.98,84.15-34.85-.28-1.06-.44-2.17-.44-3.32v-50.55c0-11.69-9.48-21.17-21.17-21.17h-61.01c-11.69,0-21.17,9.48-21.17,21.17v50.55c0,7.29-5.91,13.2-13.2,13.2h-50.55c-11.69,0-21.17,9.48-21.17,21.17v61.01c0,11.69,9.48,21.17,21.17,21.17h50.55c.73,0,1.45.08,2.15.19,36.82,2.44,51.21-4.45,54.67-5.92Z"/>
  <path class="st2" d="M325.37,162.5h-46.81c-1.37.06-2.94.07-4.74.04-28.92-.6-77.45-.66-82.1,20.82-3.07,14.19,7.42,24.4,18.21,26.58,20.36,4.1,23.95,18.45,23.95,18.45,3.4,9.31.75,16.61-4.85,24.79-4.17,6.09-6.11,7-9.47,9.56-.85.64-2.3,1.85-3.18,2.35-1.56.88-2.79,1.98-6.13,3.94-4.24,2.49-7.02,3.99-18.76,5.92-7.1,1.17-16.44,2.44-23.34,2.19l-10.09-.24c.12.7.19,1.42.19,2.16v50.55c0,11.69,9.48,21.17,21.17,21.17h61.01c11.69,0,21.17-9.48,21.17-21.17v-50.55c0-7.29,5.91-13.2,13.2-13.2h50.55c11.69,0,21.17-9.48,21.17-21.17v-61.01c0-11.69-9.48-21.17-21.17-21.17Z"/>
  <text class="st1" transform="translate(372.79 232.08)"><tspan x="0" y="0">Simplex</tspan></text>
  <text class="st0" transform="translate(372.79 327.5)"><tspan x="0" y="0">Systems</tspan></text>
</svg>